<svg width="25" height="25" viewBox="0 0 25 25" fill="none" xmlns="http://www.w3.org/2000/svg">
<mask id="mask0_1_354" style="mask-type:alpha" maskUnits="userSpaceOnUse" x="0" y="0" width="25" height="25">
<rect x="0.5" y="0.813568" width="24" height="24" fill="#D9D9D9"/>
</mask>
<g mask="url(#mask0_1_354)">
<path d="M9.57599 17.064L12.501 15.289L15.426 17.064L14.651 13.739L17.251 11.489L13.826 11.214L12.501 8.06402L11.176 11.214L7.75099 11.489L10.351 13.739L9.57599 17.064ZM12.501 24.114L9.15099 20.814H4.50099V16.164L1.20099 12.814L4.50099 9.46402V4.81402H9.15099L12.501 1.51402L15.851 4.81402H20.501V9.46402L23.801 12.814L20.501 16.164V20.814H15.851L12.501 24.114ZM12.501 21.314L15.001 18.814H18.501V15.314L21.001 12.814L18.501 10.314V6.81402H15.001L12.501 4.31402L10.001 6.81402H6.50099V10.314L4.00099 12.814L6.50099 15.314V18.814H10.001L12.501 21.314Z" fill="#992E9D"/>
</g>
</svg>
