<svg width="7" height="7" viewBox="0 0 7 7" fill="none" xmlns="http://www.w3.org/2000/svg">
<g clip-path="url(#clip0_1_249)">
<path d="M2.56244 6.6492C2.36464 6.64832 2.1722 6.58481 2.01273 6.46778C1.84977 6.35314 1.72817 6.18895 1.66601 5.99965C1.60386 5.81034 1.60448 5.60603 1.66778 5.4171L1.97101 4.47916L1.17276 3.8955C1.0127 3.77857 0.893739 3.614 0.832881 3.42535C0.772023 3.2367 0.772392 3.03364 0.833935 2.84522C0.895478 2.65679 1.01504 2.49266 1.17552 2.3763C1.336 2.25995 1.52916 2.19733 1.72739 2.19741H2.70446L3.00121 1.27217C3.06212 1.0827 3.18158 0.917445 3.34241 0.800211C3.50323 0.682977 3.69712 0.619812 3.89613 0.619812C4.09515 0.619812 4.28904 0.682977 4.44986 0.800211C4.61068 0.917445 4.73015 1.0827 4.79105 1.27217V1.27217L5.08884 2.19741H6.06592C6.26412 2.19738 6.45725 2.26004 6.61768 2.37642C6.77812 2.49279 6.89764 2.65693 6.95915 2.84534C7.02066 3.03375 7.02101 3.23679 6.96014 3.42541C6.89928 3.61404 6.78032 3.77858 6.62029 3.8955L5.8223 4.47916L6.12553 5.4171C6.18666 5.6063 6.18622 5.81001 6.12425 5.99894C6.06228 6.18787 5.94199 6.35227 5.78067 6.46851C5.61935 6.58474 5.42533 6.64682 5.2265 6.6458C5.02767 6.64479 4.83429 6.58073 4.67417 6.46286L3.89665 5.89112L3.11914 6.46312C2.95826 6.58311 2.76313 6.64833 2.56244 6.6492V6.6492ZM1.72739 2.97493C1.69318 2.97492 1.65984 2.98573 1.63214 3.00581C1.60445 3.02589 1.58381 3.05421 1.57317 3.08672C1.56253 3.11924 1.56244 3.15428 1.57292 3.18685C1.58339 3.21941 1.60389 3.24783 1.63149 3.26805L2.65677 4.01731C2.72279 4.06559 2.77191 4.13345 2.79713 4.21125C2.82235 4.28905 2.82239 4.37282 2.79725 4.45065L2.40849 5.6558C2.3977 5.68849 2.39759 5.72376 2.40817 5.75652C2.41876 5.78927 2.43948 5.81782 2.46736 5.83801C2.49523 5.85821 2.52881 5.86902 2.56323 5.86888C2.59766 5.86874 2.63114 5.85765 2.65885 5.83722L3.66677 5.09573C3.73354 5.04659 3.81427 5.02009 3.89717 5.02009C3.98007 5.02009 4.0608 5.04659 4.12757 5.09573L5.13549 5.83696C5.16316 5.85758 5.19669 5.86883 5.2312 5.86906C5.26571 5.86929 5.29939 5.85849 5.32734 5.83824C5.35528 5.81799 5.37603 5.78935 5.38655 5.75648C5.39708 5.72362 5.39683 5.68825 5.38585 5.65554L4.99709 4.45039C4.97195 4.37257 4.97199 4.28879 4.99721 4.21099C5.02243 4.13319 5.07155 4.06533 5.13757 4.01705L6.16259 3.26779C6.19017 3.24759 6.21066 3.21919 6.22114 3.18665C6.23162 3.15411 6.23156 3.11909 6.22095 3.08659C6.21035 3.05408 6.18975 3.02576 6.16209 3.00567C6.13444 2.98557 6.10114 2.97472 6.06696 2.97467H4.80375C4.72141 2.97465 4.64121 2.94848 4.5747 2.89995C4.50818 2.85142 4.4588 2.78302 4.43366 2.70461L4.05216 1.50957C4.04165 1.47686 4.02103 1.44833 3.99327 1.42809C3.96551 1.40786 3.93204 1.39695 3.89769 1.39695C3.86333 1.39695 3.82987 1.40786 3.80211 1.42809C3.77435 1.44833 3.75373 1.47686 3.74322 1.50957L3.35887 2.70487C3.33377 2.78315 3.2845 2.85146 3.21815 2.89998C3.15179 2.9485 3.07176 2.97474 2.98955 2.97493H1.72739Z" fill="#FFA239"/>
</g>
<defs>
<clipPath id="clip0_1_249">
<rect width="6.22012" height="6.22012" fill="white" transform="translate(0.786591 0.57489)"/>
</clipPath>
</defs>
</svg>
